<svg xmlns="http://www.w3.org/2000/svg" width="116" height="116" viewBox="0 0 116 116" fill="none"><g opacity="0.5" clip-path="url(#clip0_15_2233)"><path d="M58.2755 67.9761L12.3588 113.893C10.9962 115.25 9.1501 116.011 7.22666 116.007C5.30323 116.004 3.46001 115.236 2.1025 113.873C0.744991 112.511 -0.0156138 110.665 -0.0119881 108.741C-0.00836246 106.818 0.759197 104.975 2.12183 103.617L48.0385 57.7246C44.3387 51.7098 42.7711 44.6246 43.5883 37.6104C44.4054 30.5962 47.5597 24.0612 52.5432 19.0579L69.8417 2.07843C71.2208 0.764444 73.0617 0.046018 74.9663 0.0784801C76.8709 0.110942 78.6862 0.891684 80.0198 2.25191C81.3533 3.61214 82.098 5.44255 82.0927 7.34743C82.0874 9.25231 81.3327 11.0786 79.9917 12.4314L62.7318 29.3481C60.4953 31.6094 58.9452 34.458 58.2609 37.5639C57.5765 40.6699 57.7861 43.9061 58.8652 46.8979L89.1218 16.6268C89.795 15.9533 90.5941 15.4191 91.4737 15.0545C92.3533 14.6899 93.2961 14.5021 94.2483 14.5019C95.2005 14.5017 96.1433 14.689 97.0231 15.0532C97.9029 15.4173 98.7023 15.9512 99.3757 16.6244C100.049 17.2975 100.583 18.0967 100.948 18.9763C101.313 19.8559 101.5 20.7986 101.501 21.7508C101.501 22.703 101.314 23.6459 100.949 24.5256C100.585 25.4054 100.051 26.2048 99.3782 26.8783L69.1167 57.1446C72.1216 58.2164 75.3684 58.4167 78.4822 57.7223C81.5961 57.0278 84.4501 55.467 86.7148 53.2199L103.583 36.0133C104.246 35.3177 105.04 34.7607 105.92 34.3748C106.8 33.9889 107.748 33.7818 108.709 33.7654C109.669 33.749 110.624 33.9237 111.516 34.2794C112.409 34.6351 113.222 35.1647 113.908 35.8373C114.594 36.5099 115.139 37.3122 115.513 38.1975C115.886 39.0829 116.079 40.0335 116.082 40.9943C116.085 41.9551 115.896 42.9069 115.528 43.7942C115.16 44.6816 114.619 45.4869 113.936 46.1633L97.0195 63.4231C92.0208 68.4357 85.4758 71.6131 78.4452 72.4404C71.4147 73.2677 64.3109 71.6963 58.2852 67.9809L58.2755 67.9761ZM97.2902 84.6414C96.6095 83.8639 95.7705 83.2408 94.8294 82.814C93.8882 82.3872 92.8667 82.1665 91.8333 82.1668C84.0313 82.4822 76.2199 81.8493 68.5705 80.2818L66.6372 79.8854C64.7502 79.515 62.7934 79.9093 61.1972 80.9816C59.601 82.0539 58.4961 83.7164 58.1257 85.6033C57.7552 87.4902 58.1495 89.447 59.2218 91.0432C60.2941 92.6395 61.9566 93.7443 63.8435 94.1148L65.6125 94.4725C73.1402 96.0648 80.8248 96.7945 88.5177 96.6475L103.284 113.521C104.555 114.947 106.339 115.814 108.246 115.932C110.153 116.05 112.03 115.411 113.468 114.153C114.906 112.895 115.79 111.12 115.927 109.214C116.063 107.308 115.442 105.425 114.197 103.975L97.2902 84.6414ZM18.27 61.1853C19.4532 62.7017 21.1903 63.6861 23.0992 63.9217C25.0082 64.1574 26.9325 63.6251 28.449 62.4419C29.9655 61.2588 30.9498 59.5216 31.1855 57.6127C31.4211 55.7038 30.8888 53.7794 29.7057 52.2629C21.8011 42.0643 16.632 30.016 14.6885 17.2599L27.7965 31.4941C29.11 32.861 30.9067 33.6591 32.8015 33.7173C34.6963 33.7755 36.5386 33.0893 37.9335 31.8056C39.3285 30.5219 40.1652 28.7428 40.2642 26.8497C40.3633 24.9566 39.717 23.0999 38.4637 21.6776L22.3397 4.1616C20.5406 2.23181 18.2005 0.89053 15.626 0.313539C13.0515 -0.263453 10.3628 -0.0492419 7.91217 0.928101C5.53596 1.86339 3.50356 3.50459 2.08885 5.63055C0.674133 7.75651 -0.0548967 10.265 1.25077e-06 12.8181V14.5001C1.31695 31.5313 7.67741 47.7841 18.27 61.1853Z" fill="#E4E4E7"></path></g><defs><clipPath id="clip0_15_2233"><rect width="116" height="116" fill="white"></rect></clipPath></defs></svg>